<?xml version="1.0" encoding="utf-8"?>
<!-- Generator: Adobe Illustrator 15.0.0, SVG Export Plug-In . SVG Version: 6.00 Build 0)  -->
<!DOCTYPE svg PUBLIC "-//W3C//DTD SVG 1.1//EN" "http://www.w3.org/Graphics/SVG/1.1/DTD/svg11.dtd">
<svg version="1.1" id="Layer_1" xmlns="http://www.w3.org/2000/svg" xmlns:xlink="http://www.w3.org/1999/xlink" x="0px" y="0px"
	 width="122.199px" height="134.5px" viewBox="120.9 113.25 122.199 134.5" enable-background="new 120.9 113.25 122.199 134.5"
	 xml:space="preserve">
<path fill="#FFFFFF" d="M243.002,236.077c0,7.132-5.577,11.673-14.382,11.673h-93.338c-8.708,0-14.382-4.54-14.382-11.673V124.921
	c0-7.04,5.577-11.671,14.382-11.671h93.436c8.706,0,14.382,4.539,14.382,11.671v111.156H243.002z"/>
<path fill="#00699E" d="M224.6,220.6C221.5,203.4,217.2,190.2,196,190.2s-21.2,0-21.2,0v8.2c0,0,11.9,1.3,15.101,18.8
	c3.699,20.2,10.5,26.3,28.699,26.3h17.9C236.5,243.5,227.5,237,224.6,220.6z M196.1,216c-3.199-17.9-16.3-22.199-16.3-22.199h5.8
	c14.801,0,20.301,12.999,22.2,26.399c1.9,13.399,11.8,17.7,11.8,17.7C207.2,237.9,199.6,235.6,196.1,216z M212.3,213.4
	c-2.7-16.7-19.899-20.5-19.899-20.5c24.199,0,25.699,16.8,27,27.1c1.199,9.2,7.601,17.4,7.601,17.4
	C218.4,235.4,215,230.3,212.3,213.4z"/>
<path fill="#00723D" d="M126,243.5h43.9V117.8c0,0-0.1-1.8-2.2-2.2c-2.1-0.4-3.2,1.3-3.2,1.3l-16.7,42.2l3.8-1.3l-15,43.9l4.5-1.5
	L126,243.5z"/>
<path fill="#DCB704" d="M206.5,188.4c4.6-2.301,8.7-5.301,12-8.7h-43.9v6.101h2.3l-2.3,2.6H206.5L206.5,188.4z"/>
<path fill="#DCB704" d="M220.9,177.1c1.6-2,3-4,4.1-6.2h-50.3v4.5h11.2l-1.4,1.7H220.9z"/>
<path fill="#DCB704" d="M226.2,168.2c0.8-2,1.399-4,1.8-6.2h-53.4v4.4h18.8l-1.4,1.7L226.2,168.2z"/>
<path fill="#DCB704" d="M228.5,159.6c0.1-1.2,0.2-2.5,0.2-3.8c0-0.9,0-1.7-0.101-2.6H174.7v4.5h26.2l-1.7,1.8L228.5,159.6z"/>
<path fill="#DCB704" d="M228.3,150.8c-0.3-2.1-0.899-4.2-1.6-6.1h-52v4.5H208.1l-1.398,1.7L228.3,150.8z"/>
<path fill="#DCB704" d="M225.7,142.3c-1-2.2-2.3-4.4-3.8-6.4h-47.2v4.5h41l-1.5,1.9H225.7z"/>
<path fill="#DCB704" d="M218.5,131.9c-1.7-1.8-3.6-3.4-5.699-4.9H174.7v2.7h7.399l-1.899,2.1L218.5,131.9z"/>
<path fill="#DCB704" d="M205.801,123c-6.701-3.2-14.4-5-22.601-5c-2.9,0-5.7,0.2-8.5,0.7v2.6h14.5l-1.3,1.7H205.801z"/>
</svg>
